<svg id="Calque_1" data-name="Calque 1" xmlns="http://www.w3.org/2000/svg" viewBox="0 0 800 800"><defs><style>.cls-1{fill:#fff;}</style></defs><path class="cls-1" d="M320,32V64a48.06,48.06,0,0,0,48,48h16V256.53h-.16c-1.94.12-3.85.36-5.78.53-3.48.31-7,.62-10.4,1.06-2.38.31-4.74.7-7.1,1.07-2.82.44-5.64.93-8.44,1.47-2.49.48-5,1-7.43,1.56-2.85.64-5.66,1.33-8.47,2.06-2.09.55-4.18,1.06-6.25,1.66-3.86,1.11-7.66,2.34-11.44,3.62-1.08.37-2.18.68-3.25,1.06-1.39.5-2.72,1.09-4.09,1.6q-10.31,3.86-20.19,8.56c-1.12.53-2.32.92-3.44,1.47q-.75.39-1.47.84c-5.21,2.62-10.33,5.37-15.34,8.32,19.82,26.62,53.36,73.24,54.56,75C336.27,382.12,336,394.43,336,400a32,32,0,0,1-4.16,15.78c-.52.93-9.64,17-19,32.66,9.26,15.15,18.25,30.54,18.78,31.44a32,32,0,0,1-43.32,44c-.91-.52-16.82-9.45-32.34-18.6-15.52,9.15-31.43,18.08-32.34,18.6a31.9,31.9,0,0,1-47.25-23.25c0-.42-.11-.84-.19-1.25a31.94,31.94,0,0,1,4.12-19.53c.53-.9,9.52-16.29,18.78-31.44C193.69,439.3,180,415.53,170.59,399A254.27,254.27,0,0,0,144,512a259.11,259.11,0,0,0,1.31,26.12v0A254,254,0,0,0,155.53,588v0a254.14,254.14,0,0,0,19.41,45.85s0,0,0,0c3.94,7.24,8.24,14.29,12.84,21.09,0,0,0,0,0,0a257.85,257.85,0,0,0,49.47,54.41q9.48,7.83,19.69,14.75h0c6.8,4.6,13.85,8.9,21.09,12.84s14.72,7.54,22.38,10.78,15.49,6.13,23.5,8.63a258,258,0,0,0,49.9,10.22,257.27,257.27,0,0,0,126.85-19.31A16,16,0,0,0,489,717.6c-.29.11-.57.24-.86.37a222.83,222.83,0,0,1-50.81,14.65c2.57-23.79,4.88-49.44,6.56-77.74,25.22-1.28,49.21-3.9,72.41-7.26-7.74-10.49-13.45-18.26-14.06-19.09A32,32,0,0,1,528,577.62a31.62,31.62,0,0,1,12.91,3.13c.67-8.29,1.5-16.39,1.94-24.91-24.93,1.48-51.71,2.52-79.41,3.22.28-15.46.53-31,.53-47.06,0-16.19-.43-31.45-.72-47.06,27.77.7,54.61,1.74,79.6,3.22a768,768,0,0,0-9.6-89.44,768,768,0,0,0-89.44-9.6c-1.69-28.32-4-54-6.56-77.78a222.43,222.43,0,0,1,84.16,32.54c4.5,17.42,8.6,35.48,11.84,54.84,19.36,3.24,37.42,7.34,54.84,11.84a222.43,222.43,0,0,1,32.54,84.16c-23.8-2.57-49.46-4.87-77.78-6.56.79,14.4,1.12,29,1.12,43.84s-.33,29.44-1.12,43.84c28.32-1.69,54-4,77.78-6.56a228.08,228.08,0,0,1-10.85,40.53,16,16,0,0,0,29.77,11.75c.08-.21.16-.41.23-.62A255.13,255.13,0,0,0,656,512a260.06,260.06,0,0,0-1.31-26.16,258,258,0,0,0-10.22-49.9q-3.75-12-8.63-23.5t-10.78-22.38c-3.94-7.24-8.24-14.29-12.84-21.09v0q-6.91-10.21-14.75-19.69a257.85,257.85,0,0,0-54.41-49.47h0c-6.8-4.6-13.85-8.9-21.09-12.84h0a254.14,254.14,0,0,0-45.85-19.41h0a254,254,0,0,0-49.87-10.22h0c-3.33-.34-6.75-.29-10.12-.5V112h16a48.06,48.06,0,0,0,48-48V32ZM128,208s41,55.94,59,79.19c-18,23.25-59,79.19-59,79.19s55.94-41,79.19-58.94c23.25,17.93,79.25,58.94,79.25,58.94s-41.05-55.94-59-79.19c17.95-23.25,59-79.19,59-79.19s-56,41-79.25,58.94C183.94,249,128,208,128,208Zm80,192s17.57,31,28.75,48.69C225.57,465.87,208,496,208,496s30.56-17.12,48-28.06c8.72,5.47,20.71,12.47,30.53,18.12S304,496,304,496s-4.4-7.54-10.19-17.22-13-21.5-18.56-30.09C286.43,431,304,400,304,400s-30.56,18-48,29.44C238.56,418,208,400,208,400Zm192,64c10.62,0,20.9.17,31.25.31.3,15.8.75,31.28.75,47.69,0,16.24-.24,32-.53,47.69-10.42.14-20.77.31-31.47.31q-24.24,0-47.53-.47c.64,33.6,1.93,65.58,3.69,95.35a768,768,0,0,1-89.44-9.6,768,768,0,0,1-9.6-89.44c29.76,1.76,61.75,3,95.35,3.69Q352,536.25,352,512t.47-47.53Q375.75,464,400,464ZM528,609.62s41,55.94,59,79.19C569,712.06,528,768,528,768s55.94-41,79.19-58.94C630.44,727,686.44,768,686.44,768s-41.05-55.94-59-79.19c17.93-23.25,59-79.19,59-79.19s-56,41-79.25,58.94C583.94,650.61,528,609.62,528,609.62Z"/></svg>