<svg id="Capa_1" data-name="Capa 1" xmlns="http://www.w3.org/2000/svg" viewBox="0 0 800 620.68"><defs><style>.cls-1{fill:#fff;}</style></defs><path class="cls-1" d="M249.81,710.34A248.19,248.19,0,0,0,400,659.67a248.17,248.17,0,0,0,150.19,50.67C688,710.34,800,598.29,800,460.54s-112-249.8-249.81-249.8A248.25,248.25,0,0,0,400,261.4a248.16,248.16,0,0,0-150.19-50.66C112.05,210.74,0,322.79,0,460.54S112.05,710.34,249.81,710.34ZM400,359.61a180.64,180.64,0,0,1,0,201.87,180.59,180.59,0,0,1,0-201.87ZM550.2,279.5c99.83,0,181,81.22,181,181s-81.21,181-181,181a180,180,0,0,1-101.15-31,247.93,247.93,0,0,0,0-300.12A179.94,179.94,0,0,1,550.2,279.5Zm-300.39,0a180,180,0,0,1,101.16,31,247.93,247.93,0,0,0,0,300.12,180,180,0,0,1-101.16,31c-99.82,0-181-81.2-181-181S150,279.5,249.81,279.5Z" transform="translate(0 -89.66)"/><path class="cls-1" d="M395.17,112h-.27s-38-41.64-71.19-11.23-4.16,100.48,71.19,130.89l.27.26c75.33-30.41,104.37-100.74,71.19-131.14S395.17,112,395.17,112Z" transform="translate(0 -89.66)"/></svg>