<svg id="Calque_1" data-name="Calque 1" xmlns="http://www.w3.org/2000/svg" viewBox="0 0 777.78 711.11"><defs><style>.cls-1{fill:#fff;}</style></defs><path class="cls-1" d="M491.25,276.3a518.46,518.46,0,0,0-73.12-64.45q-38-27.4-71.28-41.11t-60.94-13.15q-27.69.56-43.21,17.22a38.18,38.18,0,0,0-6.28,8.34q-2.58,4.62-3.69,7.22a83.91,83.91,0,0,0-2.95,9.26c-1.23,4.44-2.1,7.28-2.59,8.52L89.81,661.48l8.49,8.89A132.45,132.45,0,0,0,72.63,693.7Q61.37,707,52.88,715.56a45.92,45.92,0,0,1-20.32,11.85q-2.58.74-6.46,5T22.22,740q0,6.66,6.65,11.11a26,26,0,0,0,14.77,4.45q10.35,0,20-8.34A138.59,138.59,0,0,0,83,725.93q9.8-13,14.22-17a187.89,187.89,0,0,1,21.42-16.3l9.61,9.26L564.75,553.33q14.4-4.44,22.16-13.33,15.51-16.66,16.06-46.11T590.6,429.07Q577.67,393.7,552,353.52A517.18,517.18,0,0,0,491.25,276.3Zm-39.88,40.37q56.51,57.76,85.86,110.55t14.22,69.45q-15.13,16.66-66.11-12.23t-107.1-86.29Q321.38,340.37,292,287.78t-14.22-69.63q15.13-16.67,66.29,12.22T451.37,316.67ZM430.68,44.44l18.47,55.93-47.64,34.82h58.72l18.1,55.92,18.09-55.92h58.35L507.5,100.37,526,44.81,478.33,79.26Zm-103.4,0-10,50.75,50.59,10,10-50.75ZM660,197l40.62-42.6,52.82,25.93-27.33-51.85,41-41.85-58,10L681.82,44.44,673.69,103l-58,10,52.81,25.56Zm-13.66,91.11,49.11,32.59-15.51,57,45.8-37,48.75,32.59-20.31-55.55L800,281.48l-58.72,2.59L720.6,228.89l-15.14,56.67ZM625.31,150.74l-110,90.37,13.66,16.67L639,167.41Zm38.41,174.82-86.05-7.78-2.21,21.48L661.88,347Zm8.5,103.7-15.88,49.63,49.12,15.93,16.25-49.26Z" transform="translate(-22.22 -44.44)"/></svg>