<svg id="Calque_1" data-name="Calque 1" xmlns="http://www.w3.org/2000/svg" viewBox="0 0 721.88 438.29"><defs><style>.cls-1{fill:#fff;}</style></defs><path class="cls-1" d="M64.06,191.4v21.88h96.88V191.4Zm241.77,0-50,50H214.06v71.88H262a219.85,219.85,0,0,1,376,0H760.94V241.4H644.17l-50-50C450,177.34,450,177.34,305.83,191.4ZM450,235.53A191.81,191.81,0,1,0,641.81,427.34,191.6,191.6,0,0,0,450,235.53ZM39.06,241.4v71.88H185.94V241.4Zm410.94,23c89.83,0,163,73.12,163,163s-73.12,163-163,163S287.05,517.17,287.05,427.34s73.12-162.95,163-162.95Zm-34,34.44c-19,.66-40.18,10.2-57.47,25.9-31.29,28.42-41.16,68.52-22.05,89.56s60,15.06,91.26-13.37,41.16-68.52,22.05-89.56c-7.82-8.6-19.72-13-33.79-12.53ZM39.06,341.4V563.28H185.94V341.4Zm175,0V563.28h63.15A219.73,219.73,0,0,1,247.55,341.4Zm438.39,0a219.73,219.73,0,0,1-29.66,221.88H760.94V341.4ZM39.06,591.4v21.88H185.94V591.4Zm175,0v21.88H332.64a221.69,221.69,0,0,1-29-21.88Zm382.26,0a221.69,221.69,0,0,1-29,21.88H760.94V591.4Z" transform="translate(-39.06 -180.85)"/></svg>