<svg id="Layer_1" data-name="Layer 1" xmlns="http://www.w3.org/2000/svg" viewBox="0 0 512 366.71"><defs><style>.cls-1{fill:#fff;}</style></defs><path class="cls-1" d="M119.9,114.58,76,208.72a69.76,69.76,0,0,0,27,89.11L69.27,370.19,0,385.48l115.54,53.88L83.23,377.43l34-73A70,70,0,0,0,203,267.68l43.81-93.93ZM48.66,390.83,70,386.11l10.12,19.41ZM188.72,261a54.35,54.35,0,0,1-72.14,26.25l-.19-.09a54,54,0,0,1-26.14-71.84l37.25-79.89,98.38,45.87Z" transform="translate(0 -72.64)"/><path class="cls-1" d="M168.63,245.52a35.63,35.63,0,0,1-47.35,17.24l-.14-.06-6.64,14.24.13.07a51.37,51.37,0,0,0,68.25-24.84Z" transform="translate(0 -72.64)"/><rect class="cls-1" x="106.84" y="128.75" width="92.19" height="15.71"/><path class="cls-1" d="M390.86,262.7l-.13.06a35.67,35.67,0,0,1-47.36-17.24l-14.25,6.65A51.37,51.37,0,0,0,397.37,277l.13-.06Z" transform="translate(0 -72.64)"/><path class="cls-1" d="M512,385.48l-69.27-15.29L409,297.83a69.76,69.76,0,0,0,27-89.11l-43.9-94.14L265.23,173.74,309,267.68a69.86,69.86,0,0,0,85.71,36.78l34,73-32.31,61.92ZM395.41,287.29A54.26,54.26,0,0,1,323.28,261l-37.16-79.69,98.38-45.88,37.25,79.89a54,54,0,0,1-26.14,71.84ZM442,386.11l21.38,4.72-31.5,14.69Z" transform="translate(0 -72.64)"/><rect class="cls-1" x="313.23" y="128.75" width="91.15" height="15.71"/><rect class="cls-1" x="246.71" width="15.71" height="35.62"/><rect class="cls-1" x="191.6" y="95.47" width="15.71" height="35.86" transform="translate(-21.76 101.61) rotate(-45)"/><rect class="cls-1" x="291.74" y="105.54" width="35.85" height="15.71" transform="translate(10.52 179.53) rotate(-45)"/></svg>